<svg width="24" height="24" viewBox="0 0 24 24" fill="none" xmlns="http://www.w3.org/2000/svg">
<rect width="24" height="24" fill="#E9E9E9"/>
<path d="M8.09997 18.494C9.22442 18.494 10.136 17.5824 10.136 16.458C10.136 15.3335 9.22442 14.422 8.09997 14.422C6.97551 14.422 6.06396 15.3335 6.06396 16.458C6.06396 17.5824 6.97551 18.494 8.09997 18.494Z" stroke="#444444" stroke-width="1.5"/>
<path d="M15.9 18.494C17.0245 18.494 17.936 17.5824 17.936 16.458C17.936 15.3335 17.0245 14.422 15.9 14.422C14.7756 14.422 13.864 15.3335 13.864 16.458C13.864 17.5824 14.7756 18.494 15.9 18.494Z" stroke="#444444" stroke-width="1.5"/>
<path d="M5.31296 15.9C4.72214 15.8997 4.15559 15.6649 3.73782 15.2472C3.32005 14.8294 3.08523 14.2628 3.08496 13.672V13.114C3.08496 12.3751 3.37849 11.6665 3.90096 11.144C4.42344 10.6215 5.13207 10.328 5.87096 10.328H18.129C18.4949 10.328 18.8573 10.4001 19.1953 10.5402C19.5334 10.6803 19.8406 10.8856 20.0993 11.1444C20.358 11.4032 20.5632 11.7104 20.7032 12.0485C20.8431 12.3867 20.9151 12.7491 20.915 13.115C20.9147 13.8536 20.6212 14.5618 20.099 15.084C19.5767 15.6062 18.8685 15.8997 18.13 15.9M9.77096 4.75601V10.328M9.77096 4.75601H7.54196C6.42796 4.75601 5.63896 5.36701 5.16596 6.51701C4.69196 7.66701 4.75596 10.328 4.75596 10.328H9.77096M9.77096 4.75601H12.001C13.115 4.75601 13.877 5.86101 14.114 6.51701C14.786 8.37701 14.786 10.328 14.786 10.328H9.77096" stroke="#444444" stroke-width="1.5" stroke-linecap="round"/>
<path d="M10.328 16.458H13.672" stroke="#444444" stroke-width="1.672"/>
</svg>
