<svg width="17" height="20" viewBox="0 0 17 20" fill="none" xmlns="http://www.w3.org/2000/svg">
<path d="M14.7333 9.7124C15.0875 9.96598 15.4033 10.2536 15.6807 10.5752C15.9582 10.8968 16.1972 11.2493 16.3979 11.6328C16.5986 12.0163 16.7462 12.4214 16.8406 12.8481C16.9351 13.2749 16.9882 13.7109 17 14.1562C17 14.8923 16.8672 15.585 16.6016 16.2344C16.3359 16.8838 15.97 17.4497 15.5036 17.9321C15.0373 18.4146 14.4972 18.7949 13.8833 19.0732C13.2694 19.3516 12.6083 19.4938 11.9 19.5C11.3628 19.5 10.8434 19.4165 10.3417 19.2495C9.83993 19.0825 9.37951 18.8413 8.96042 18.5259C8.54132 18.2104 8.16944 17.8332 7.84479 17.394C7.52014 16.9549 7.26927 16.4694 7.09219 15.9375H0V1.6875H2.26667V0.5H3.4V1.6875H11.3333V0.5H12.4667V1.6875H14.7333V9.7124ZM1.13333 2.875V5.25H13.6V2.875H12.4667V4.0625H11.3333V2.875H3.4V4.0625H2.26667V2.875H1.13333ZM6.82656 14.75C6.80885 14.5583 6.8 14.3604 6.8 14.1562C6.8 13.6243 6.87083 13.1079 7.0125 12.6069C7.15417 12.106 7.36962 11.6328 7.65885 11.1875H6.8V10H7.93333V10.7979C8.17535 10.4824 8.44392 10.2041 8.73906 9.96289C9.0342 9.72168 9.35295 9.51449 9.69531 9.34131C10.0377 9.16813 10.3948 9.03825 10.7667 8.95166C11.1385 8.86507 11.5163 8.81868 11.9 8.8125C12.4903 8.8125 13.0569 8.91455 13.6 9.11865V6.4375H1.13333V14.75H6.82656ZM11.9 18.3125C12.449 18.3125 12.9625 18.2043 13.4406 17.9878C13.9187 17.7713 14.3378 17.4744 14.6979 17.0972C15.058 16.7199 15.3413 16.2808 15.5479 15.7798C15.7545 15.2788 15.8608 14.7376 15.8667 14.1562C15.8667 13.5811 15.7634 13.043 15.5568 12.542C15.3502 12.041 15.0668 11.6019 14.7068 11.2246C14.3467 10.8473 13.9276 10.5505 13.4495 10.334C12.9714 10.1175 12.4549 10.0062 11.9 10C11.351 10 10.8375 10.1082 10.3594 10.3247C9.88125 10.5412 9.46215 10.8381 9.10208 11.2153C8.74201 11.5926 8.45868 12.0317 8.25208 12.5327C8.04549 13.0337 7.93924 13.5749 7.93333 14.1562C7.93333 14.7314 8.03663 15.2695 8.24323 15.7705C8.44983 16.2715 8.73316 16.7106 9.09323 17.0879C9.4533 17.4652 9.8724 17.762 10.3505 17.9785C10.8286 18.195 11.3451 18.3063 11.9 18.3125ZM12.4667 13.5625H14.1667V14.75H11.3333V11.1875H12.4667V13.5625ZM2.26667 10H3.4V11.1875H2.26667V10ZM4.53333 10H5.66667V11.1875H4.53333V10ZM4.53333 7.625H5.66667V8.8125H4.53333V7.625ZM2.26667 12.375H3.4V13.5625H2.26667V12.375ZM4.53333 12.375H5.66667V13.5625H4.53333V12.375ZM7.93333 8.8125H6.8V7.625H7.93333V8.8125ZM10.2 8.8125H9.06667V7.625H10.2V8.8125ZM12.4667 8.8125H11.3333V7.625H12.4667V8.8125Z" fill="#1E1E1E"/>
</svg>
