<svg width="30" height="32" viewBox="0 0 30 32" fill="none" xmlns="http://www.w3.org/2000/svg">
<path d="M2.8125 11.7061V29.1436" stroke="#292929" stroke-width="1.17419" stroke-linecap="round" stroke-linejoin="round"/>
<path d="M25.3087 19.4563H28.125C28.3732 19.4563 28.6113 19.3546 28.787 19.1735C28.9627 18.9924 29.0618 18.7466 29.0625 18.4902C29.0724 13.5417 29.0975 7.56524 27.1138 2.61687C27.0308 2.40973 26.8808 2.23873 26.6895 2.13302C26.4982 2.02732 26.2774 1.99343 26.0646 2.03717C25.8518 2.0809 25.6603 2.19952 25.5228 2.37284C25.3851 2.54614 25.31 2.7634 25.31 2.98757V29.1438" stroke="#292929" stroke-width="1.17419" stroke-linecap="round" stroke-linejoin="round"/>
<path d="M0.9375 2.01855V9.76855C0.9375 10.2824 1.13504 10.7752 1.48667 11.1386C1.83831 11.5019 2.31522 11.7061 2.8125 11.7061C3.30978 11.7061 3.78669 11.5019 4.13833 11.1386C4.48996 10.7752 4.6875 10.2824 4.6875 9.76855V2.01855" stroke="#292929" stroke-width="1.17419" stroke-linecap="round" stroke-linejoin="round"/>
<path d="M20.625 10.7802C19.0809 9.06744 16.9666 8.02213 14.707 7.8544C12.4475 7.68666 10.2103 8.40894 8.44507 9.87605" stroke="#292929" stroke-width="1.17419" stroke-linecap="round" stroke-linejoin="round"/>
<path d="M7.5 24.2573C8.33956 25.1877 9.35544 25.9297 10.4844 26.437C11.6135 26.9443 12.8313 27.2061 14.0625 27.2061C15.2937 27.2061 16.5115 26.9443 17.6406 26.437C18.7696 25.9297 19.7855 25.1877 20.625 24.2573" stroke="#292929" stroke-width="1.17419" stroke-linecap="round" stroke-linejoin="round"/>
</svg>
