<svg width="30" height="32" viewBox="0 0 30 32" fill="none" xmlns="http://www.w3.org/2000/svg">
<path d="M4.6875 17.3661V28.7432H12.1876V20.9932C12.1876 20.4794 12.385 19.9866 12.7367 19.6232C13.0883 19.2598 13.5652 19.0557 14.0626 19.0557H15.9376C16.4348 19.0557 16.9117 19.2598 17.2633 19.6232C17.615 19.9866 17.8126 20.4794 17.8126 20.9932V28.7432H25.3126V17.3661" stroke="#292929" stroke-width="1.20087" stroke-linecap="round" stroke-linejoin="round"/>
<path d="M0.9375 16.8691L13.6738 3.7083C13.8479 3.52826 14.0547 3.38543 14.2822 3.28799C14.5098 3.19054 14.7537 3.14038 15 3.14038C15.2463 3.14038 15.4902 3.19054 15.7178 3.28799C15.9453 3.38543 16.1521 3.52826 16.3262 3.7083L29.0624 16.8691" stroke="#292929" stroke-width="1.20087" stroke-linecap="round" stroke-linejoin="round"/>
<path d="M20.625 8.15002V6.21252H25.3124V12.9938" stroke="#292929" stroke-width="1.20087" stroke-linecap="round" stroke-linejoin="round"/>
<path d="M1.875 28.7399H28.125" stroke="#292929" stroke-width="1.20087" stroke-linecap="round" stroke-linejoin="round"/>
</svg>
