<?xml version="1.0" encoding="UTF-8"?> <svg xmlns="http://www.w3.org/2000/svg" width="100" height="20" viewBox="0 0 357 95" fill="none">
<g clip-path="url(#clip0)">
<path d="M85.2619 52.9203C85.2619 51.7503 84.3719 51.3403 82.2419 51.2703V45.5703H94.9519V51.2703H94.3319C92.3419 51.2703 91.7919 51.6103 91.4419 53.4003L82.7119 
94.2103H73.0219L64.7119 53.0603C64.4419 51.7503 63.8219 51.2003 62.3119 51.2003C62.0319 51.2003 61.7619 51.2703 61.4219 51.2703V45.5703H78.5319V51.2703C75.9919 
51.2703 75.0319 51.6103 75.0319 52.9903C75.0319 53.2003 75.1019 53.4003 75.1019 53.6103L79.5619 82.5403L85.1919 53.6103C85.2619 53.3303 85.2619 53.1303 85.2619 
52.9203Z" fill="#292929"></path>

<path d="M91.9336 88.5092H92.5536C94.5436 88.5092 95.0936 88.1692 95.4336 86.3092L104.644 45.5692H114.544L122.854 86.6592C123.124 88.0392 123.744 88.5792 125.254 
88.5792C125.534 88.5792 125.804 88.5092 126.144 88.5092V94.2092H109.034V88.5092C111.574 88.5092 112.534 88.1692 112.534 86.7892C112.534 86.5792 112.464 86.3792 
112.464 86.1692L111.574 79.7092H103.054L101.614 86.2392C101.544 86.4492 101.544 86.6492 101.544 86.7892C101.544 87.8892 102.304 88.5792 103.744 88.5792C104.014 
88.5792 104.364 88.5792 104.634 88.5092V94.2092H91.9336V88.5092ZM108.084 34.5092C108.084 37.3292 106.094 39.3192 103.344 39.3192C100.664 39.3192 98.4636 37.2592 
98.4636 34.5792C98.4636 31.9692 100.734 29.6992 103.344 29.6992C106.024 29.6992 108.084 31.8992 108.084 34.5092ZM110.894 74.3592L107.944 55.9492L104.094 
74.3592H110.894ZM121.204 34.5092C121.204 37.3292 119.144 39.3192 116.394 39.3192C113.714 39.3192 111.514 37.2592 111.514 34.5792C111.514 31.9692 113.784 
29.6992 116.394 29.6992C119.074 29.6992 121.204 31.8992 121.204 34.5092Z" fill="#292929"></path>

<path d="M146.473 88.5103V94.2103H129.773V88.5103C132.593 
88.4403 133.273 87.6203 133.273 85.1403V54.6403C133.273 52.1703 132.583 51.3403 129.773 51.2703V45.5703H144.343C156.093 45.5703 161.383 48.9403 161.383 
59.0403C161.383 66.0503 158.013 69.8303 151.423 70.3103C156.983 71.6203 158.573 74.7103 158.913 80.9603C159.183 85.7003 158.983 88.5903 160.703 
88.5903C161.943 88.5903 162.553 87.1503 162.553 84.1203C162.553 83.6403 162.483 83.1603 162.483 82.6103H166.193V83.3703C166.193 91.4803 163.993 94.9803 
158.223 94.9803C151.553 94.9803 149.773 90.5803 149.563 81.4403C149.423 75.1903 149.423 72.1003 145.093 72.1003H142.963V85.1503C142.973 87.6203 143.663 
88.4503 146.473 88.5103ZM142.973 66.4603H145.583C150.253 66.4603 152.183 64.1903 152.183 58.8303C152.183 53.4703 150.263 51.2703 145.583 51.2703H142.973V66.4603Z" 
fill="#292929"></path>

<path d="M182.092 88.5103V94.2103H169.652V88.5103C172.472 88.4403 173.152 87.6203 173.152 85.1403V54.6403C173.152 52.1703 172.462 51.3403 
169.652 51.2703V45.5703H186.002L190.882 76.0103L196.312 45.5703H212.252V51.2703C209.712 51.3403 208.752 52.1003 208.752 54.6403V85.1503C208.752 87.6203 209.642 
88.5203 212.252 88.5203V94.2203H197.072V88.5203C199.482 88.3803 200.232 87.4903 200.232 85.1503V52.6503L192.332 94.2203H186.492L178.862 52.6503V85.1503C178.862 
87.4803 179.692 88.3803 182.092 88.5103Z" fill="#292929"></path>

<path d="M216.844 51.2703V45.5703H234.024V51.2703H233.544C230.724 51.2703 230.044 52.1603 230.044 
54.6403V88.5103H232.514C240.074 88.5103 241.794 85.2103 241.794 75.2503H246.674V94.2103H216.854V88.5103C219.674 88.4403 220.354 87.6203 220.354 85.1403V54.6403C220.354 
52.1703 219.664 51.3403 216.844 51.2703Z" fill="#292929"></path>

<path d="M250.113 88.5103H250.733C252.723 88.5103 253.273 88.1703 253.623 
86.3103L262.833 45.5703H272.723L281.033 86.6603C281.303 88.0303 281.923 88.5803 283.443 88.5803C283.713 88.5803 283.993 88.5103 284.333 
88.5103V94.2103H267.223V88.5103C269.763 88.5103 270.723 88.1703 270.723 86.7903C270.723 86.5803 270.653 86.3803 270.653 86.1703L269.763 
79.7103H261.243L259.803 86.2403C259.733 86.4503 259.733 86.6503 259.733 86.7903C259.733 87.8903 260.483 88.5803 261.933 88.5803C262.203 88.5803 262.553 88.5803 262.823 
88.5103V94.2103H250.113V88.5103ZM269.073 74.3603L266.123 55.9503L262.273 74.3603H269.073Z" fill="#292929"></path>

<path d="M301.353 88.5103V94.2103H287.953V88.5103C290.773 88.4403 291.453 87.6203 291.453 85.1403V54.6403C291.453 52.1703 290.763 51.3403 287.953 
51.2703V45.5703H301.493L312.623 76.8303V54.6403C312.623 52.1703 311.733 51.2703 309.123 51.2703V45.5703H322.593V51.2703C319.773 51.3403 319.093 52.1603 319.093 
54.6403V94.2203H310.093L297.863 59.7303V85.1503C297.853 87.6203 298.743 88.5103 301.353 88.5103Z" fill="#292929"></path>

<path d="M325.934 94.2203V88.5203C328.544 88.5203 329.434 87.6303 329.434 85.1503V54.6403C329.434 52.1703 328.544 51.2703 325.934 51.2703V45.5703H337.064C343.044 
45.5703 347.374 45.9103 350.804 48.3203C355.884 51.8903 356.984 58.7003 356.984 69.8903C356.984 81.0203 355.884 87.7503 350.594 91.4003C347.154 93.7403 342.894 
94.2203 337.334 94.2203H325.934ZM338.924 88.5103H340.434C342.904 88.5103 344.554 88.0303 345.524 86.5903C347.314 83.9803 347.314 78.5503 347.314 69.8903C347.314 
61.2303 347.314 55.8103 345.524 53.1903C344.564 51.7503 342.914 51.2703 340.434 51.2703H338.924V88.5103Z" fill="#292929"></path>

<path d="M56.49 0C56.49 0 62 0 62 6.2V28.68C62 28.68 62 34.88 56.49 34.88H48.37L52.49 46.2L33.48 34.88H5.51C5.51 34.88 0 34.88 0 28.68V6.2C0 6.2 0 0 5.51 0H56.49Z" 
fill="#3F808B"></path>

<path d="M53.4917 14.4284H50.8717L51.4517 10.7084L48.4417 11.0484L47.9217 14.4284L45.9117 14.5884L45.5717 16.7884H47.5617L46.5417 23.3784C46.4117 24.1684 46.3317 
24.9484 46.3317 25.3984C46.3317 26.1084 46.4417 26.5484 46.6417 26.9384C47.9717 26.7784 48.8917 26.5484 49.9417 26.0484C50.5717 25.7584 51.6717 25.1284 52.2717 
24.7184C52.4817 24.5884 52.7917 24.3484 53.1917 24.0684L52.1417 22.2084C51.6217 22.5484 51.4117 22.6784 50.9617 22.9184C50.4117 23.2084 50.1717 23.3084 49.4717 
23.5684L50.5217 16.7884H53.1617L53.4917 14.4284ZM44.6817 10.0584C44.6817 9.00844 44.1017 8.14844 43.3717 8.14844C42.4317 8.14844 41.6217 8.85844 41.4117 9.84844C41.3817 
9.95844 41.3617 10.0584 41.3617 10.1584C41.3617 11.1784 41.9617 12.0184 42.6917 12.0184C43.6317 12.0184 44.4717 11.3084 44.6517 10.3184C44.6817 10.2084 44.6817 10.1384 
44.6817 10.0584ZM44.1017 14.2384L40.9317 14.5784L39.0717 26.5884H42.1817L44.1017 14.2384ZM38.0017 14.7684C36.8217 14.2984 35.7217 14.0584 34.4417 14.0584C31.5417 
14.0584 29.8617 15.3684 29.8617 17.6184C29.8617 18.3484 30.1017 18.9784 30.5417 19.5584C30.8317 19.8984 31.1717 20.2684 31.5617 20.6284C31.6917 20.7384 32.1917 21.1784 
33.0217 21.9084C33.6717 22.4884 33.9117 22.8484 33.9117 23.3184C33.9117 23.9484 33.3317 24.3684 32.3717 24.3684C31.6117 24.3684 30.8317 24.1884 29.5217 23.7184L28.6617 
26.2584C29.6817 26.5484 30.0717 26.6284 31.0717 26.7784C31.7517 26.8784 32.5317 26.9384 33.0317 26.9384C35.5717 26.9384 37.2417 25.4984 37.2417 23.2784C37.2417 21.9984 
36.6917 21.1884 34.8917 19.6684C33.4817 18.5184 33.3217 18.3584 33.0817 17.9684C32.9817 17.8084 32.9217 17.6284 32.9217 17.4484C32.9217 16.8684 33.5017 16.5284 34.5217 
16.5284C35.3617 16.5284 35.9117 16.6884 37.1117 17.3184L38.0017 14.7684ZM28.4317 10.0584C28.4317 9.00844 27.8517 8.14844 27.1217 8.14844C26.1817 8.14844 25.3717 8.85844 
25.1617 9.84844C25.1317 9.95844 25.1117 10.0584 25.1117 10.1584C25.1117 11.1784 25.7117 12.0184 26.4417 12.0184C27.3817 12.0184 28.2217 11.3084 28.4017 10.3184C28.4317 
10.2084 28.4317 10.1384 28.4317 10.0584ZM27.8617 14.2384L24.6917 14.5784L22.8317 26.5884H25.9417L27.8617 14.2384ZM23.6917 9.32844H20.1017L14.5017 20.9684L14.3717 
21.1784C14.2917 21.2784 14.2417 21.3384 14.2417 21.4384C14.2117 21.3884 14.2117 21.3384 14.2117 21.2284C14.2117 21.1284 14.2117 21.0484 14.1817 20.9884L12.1017 
9.32844H8.51172L12.0217 26.5984H14.7417L23.6917 9.32844Z" fill="white"></path></g><defs>

<clipPath id="clip0"><rect width="356.99" height="94.97" fill="white"></rect></clipPath></defs></svg> 