<svg width="30" height="32" viewBox="0 0 30 32" fill="none" xmlns="http://www.w3.org/2000/svg">
<g clip-path="url(#clip0_378_3339)">
<path d="M18.0647 8.50185C19.9565 8.50185 21.4902 6.91711 21.4902 4.96223C21.4902 3.00735 19.9565 1.42261 18.0647 1.42261C16.1728 1.42261 14.6393 3.00735 14.6393 4.96223C14.6393 6.91711 16.1728 8.50185 18.0647 8.50185Z" stroke="#292929" stroke-width="1.25273" stroke-linecap="round" stroke-linejoin="round"/>
<path d="M22.6998 13.4082C21.4789 13.2671 20.307 12.832 19.2783 12.138C16.8979 10.5687 14.1566 9.68136 11.3352 9.56668C8.51374 9.452 5.7135 10.1142 3.22113 11.4853C2.76481 11.7427 2.4261 12.1767 2.27951 12.6921C2.13292 13.2075 2.19047 13.7619 2.43948 14.2335C2.68849 14.705 3.10857 15.055 3.60731 15.2064C4.10606 15.3579 4.6426 15.2985 5.09892 15.0412C6.69912 14.16 8.47599 13.6762 10.2886 13.6279L7.09024 20.505C6.92961 20.8476 6.67906 21.1367 6.36712 21.3394C6.05519 21.542 5.69443 21.6501 5.32598 21.6511H2.8949C2.37577 21.6511 1.87789 21.8642 1.51081 22.2435C1.14372 22.6229 0.9375 23.1374 0.9375 23.6738C0.9375 24.2102 1.14372 24.7247 1.51081 25.104C1.87789 25.4834 2.37577 25.6965 2.8949 25.6965H5.32598C6.43159 25.6928 7.51398 25.3683 8.44978 24.7598C9.38557 24.1514 10.1371 23.2836 10.6188 22.2552L10.9398 21.5649L12.8777 23.0643C13.1201 23.2532 13.317 23.4977 13.4528 23.7784C13.5887 24.0591 13.6598 24.3685 13.6606 24.6824V27.7164C13.6606 28.2528 13.8668 28.7673 14.2339 29.1465C14.601 29.5259 15.0989 29.739 15.618 29.739C16.1371 29.739 16.635 29.5259 17.002 29.1465C17.3691 28.7673 17.5753 28.2528 17.5753 27.7164V24.6824C17.5739 23.7407 17.3609 22.8121 16.9533 21.9698C16.5458 21.1275 15.9547 20.3943 15.2264 19.8281L12.6676 17.8459L14.3718 14.1781C15.3477 14.497 16.2773 14.9505 17.1356 15.5265C18.6806 16.5673 20.4401 17.219 22.2731 17.4292C22.3451 17.4373 22.4173 17.4413 22.4898 17.4414C22.9901 17.4406 23.4711 17.242 23.8341 16.8862C24.1971 16.5303 24.4146 16.0443 24.4416 15.5281C24.4687 15.0118 24.3033 14.5044 23.9797 14.1102C23.656 13.7159 23.1984 13.4648 22.7011 13.4082H22.6998Z" stroke="#292929" stroke-width="1.25273" stroke-linecap="round" stroke-linejoin="round"/>
<path d="M22.6998 13.4082C21.4789 13.2671 20.307 12.832 19.2783 12.138C16.8979 10.5687 14.1566 9.68136 11.3352 9.56668C8.51374 9.452 5.7135 10.1142 3.22113 11.4853C2.76481 11.7427 2.4261 12.1767 2.27951 12.6921C2.13292 13.2075 2.19047 13.7619 2.43948 14.2335C2.68849 14.705 3.10857 15.055 3.60731 15.2064C4.10606 15.3579 4.6426 15.2985 5.09892 15.0412C6.69912 14.16 8.47599 13.6762 10.2886 13.6279L7.09024 20.505C6.92961 20.8476 6.67906 21.1367 6.36712 21.3394C6.05519 21.542 5.69443 21.6501 5.32598 21.6511H2.8949C2.37577 21.6511 1.87789 21.8642 1.51081 22.2435C1.14372 22.6229 0.9375 23.1374 0.9375 23.6738C0.9375 24.2102 1.14372 24.7247 1.51081 25.104C1.87789 25.4834 2.37577 25.6965 2.8949 25.6965H5.32598C6.43159 25.6928 7.51398 25.3683 8.44978 24.7598C9.38557 24.1514 10.1371 23.2836 10.6188 22.2552L10.9398 21.5649L12.8777 23.0643C13.1201 23.2532 13.317 23.4977 13.4528 23.7784C13.5887 24.0591 13.6598 24.3685 13.6606 24.6824V27.7164C13.6606 28.2528 13.8668 28.7673 14.2339 29.1465C14.601 29.5259 15.0989 29.739 15.618 29.739C16.1371 29.739 16.635 29.5259 17.002 29.1465C17.3691 28.7673 17.5753 28.2528 17.5753 27.7164V24.6824C17.5739 23.7407 17.3609 22.8121 16.9533 21.9698C16.5458 21.1275 15.9547 20.3943 15.2264 19.8281L12.6676 17.8459L14.3718 14.1781C15.3477 14.497 16.2773 14.9505 17.1356 15.5265C18.6806 16.5673 20.4401 17.219 22.2731 17.4292C22.3451 17.4373 22.4173 17.4413 22.4898 17.4414C22.9901 17.4406 23.4711 17.242 23.8341 16.8862C24.1971 16.5303 24.4146 16.0443 24.4416 15.5281C24.4687 15.0118 24.3033 14.5044 23.9797 14.1102C23.656 13.7159 23.1984 13.4648 22.7011 13.4082H22.6998Z" stroke="#292929" stroke-width="1.25273" stroke-linecap="round" stroke-linejoin="round"/>
</g>
<defs>
<clipPath id="clip0_378_3339">
<rect width="30" height="31" fill="white" transform="translate(0 0.0810547)"/>
</clipPath>
</defs>
</svg>
