<svg width="24" height="24" viewBox="0 0 24 24" fill="none" xmlns="http://www.w3.org/2000/svg">
<rect width="24" height="24" fill="#E9E9E9"/>
<path fill-rule="evenodd" clip-rule="evenodd" d="M6.57495 3.19C8.08895 2.468 10.0689 2.323 11.9999 2.323C13.9309 2.323 15.9109 2.468 17.4249 3.189C18.2019 3.559 18.8809 4.091 19.3599 4.849C19.8399 5.606 20.0799 6.529 20.0799 7.617V17.09C20.0799 17.566 19.9199 17.998 19.5839 18.333C19.2759 18.64 18.8809 18.803 18.5199 18.903C18.1699 18.998 17.7539 19.057 17.3119 19.1L18.8479 21.677L17.0149 21.659L15.4429 19.229C13.1875 19.3458 10.9276 19.3481 8.67195 19.236L6.98495 21.66H5.16395L6.76695 19.123C6.35403 19.0983 5.94373 19.0408 5.53995 18.951C5.16695 18.859 4.75195 18.7 4.42895 18.381C4.07695 18.032 3.91895 17.581 3.91895 17.091V7.617C3.91895 6.529 4.16095 5.607 4.63895 4.849C5.11895 4.091 5.79795 3.559 6.57495 3.189V3.19ZM6.05295 5.743C5.77495 6.182 5.59195 6.779 5.59195 7.617V17.09C5.59195 17.157 5.60195 17.185 5.60295 17.189L5.60395 17.19C5.61895 17.205 5.69695 17.267 5.94195 17.327C6.34595 17.427 6.88195 17.457 7.60595 17.499C7.81595 17.51 8.03995 17.523 8.28195 17.539C10.897 17.6915 13.519 17.6821 16.1329 17.511C17.0049 17.453 17.6349 17.411 18.0779 17.29C18.3049 17.228 18.3849 17.167 18.4029 17.15C18.4069 17.1303 18.4086 17.1101 18.4079 17.09V7.617C18.4079 6.779 18.2249 6.182 17.9479 5.743C17.6699 5.303 17.2589 4.962 16.7069 4.699C15.5609 4.153 13.9189 3.995 11.9999 3.995C10.0809 3.995 8.43895 4.153 7.29295 4.699C6.74095 4.962 6.32995 5.303 6.05295 5.743Z" fill="#444444"/>
<path d="M16.458 7.13001V11.295C16.458 11.387 15.592 11.451 14.401 11.485C13.68 11.507 12.84 11.517 12 11.517C11.19 11.517 10.382 11.507 9.67899 11.488C8.44599 11.454 7.54199 11.39 7.54199 11.295V7.13101C7.54199 6.10701 9.63099 5.94501 12 5.94501C14.37 5.94501 16.458 6.10601 16.458 7.13001Z" stroke="#444444" stroke-width="1.5"/>
<path d="M8.65589 15.783C9.16509 15.783 9.57789 15.3702 9.57789 14.861C9.57789 14.3518 9.16509 13.939 8.65589 13.939C8.14668 13.939 7.73389 14.3518 7.73389 14.861C7.73389 15.3702 8.14668 15.783 8.65589 15.783Z" fill="#444444" stroke="#444444" stroke-width="1.5"/>
<path d="M15.3429 15.783C15.8521 15.783 16.2649 15.3702 16.2649 14.861C16.2649 14.3518 15.8521 13.939 15.3429 13.939C14.8337 13.939 14.4209 14.3518 14.4209 14.861C14.4209 15.3702 14.8337 15.783 15.3429 15.783Z" fill="#444444" stroke="#444444" stroke-width="1.5"/>
</svg>
